<svg width="399" height="294" viewBox="0 0 399 294" fill="none" xmlns="http://www.w3.org/2000/svg">
<rect width="399" height="294"/>
<path fill-rule="evenodd" clip-rule="evenodd" d="M283.603 8.96138C256.547 2.20615 233.298 -3.59825 200 6.23214V63.0003L199.5 63C89.3192 63 0 99.2649 0 144C0 188.735 89.3192 225 199.5 225L200 225V272.841C238.228 263.074 266.665 270.077 293.129 276.593C295.116 277.082 297.092 277.569 299.061 278.045C327.381 284.902 355.777 290.357 399 275.819V144V8.25116C351.269 24.035 318.463 17.5759 288.992 10.3016C287.177 9.85367 285.383 9.40568 283.605 8.9618L283.603 8.96138ZM399 144C399 188.667 309.951 224.89 200 225V216C298.905 215.892 379 183.922 379 144.5C379 105.078 298.905 73.1077 200 73.0003V63.0003C309.951 63.1098 399 99.3326 399 144ZM200 85V73.0003L199.5 73C100.365 73 20 105.012 20 144.5C20 183.988 100.365 216 199.5 216L200 216V203.556C280.634 203.556 346 177.017 346 144.278C346 111.54 280.634 85 200 85ZM200 92.3183V85C119.366 85 54 111.54 54 144.278C54 177.017 119.366 203.556 200 203.556V196.97C272.55 196.97 331.363 173.543 331.363 144.644C331.363 115.745 272.55 92.3183 200 92.3183ZM200 107V92.3183C127.45 92.3183 68.6366 115.745 68.6366 144.644C68.6366 173.543 127.45 196.97 200 196.97V180.083C249.706 180.083 290 163.723 290 143.541C290 123.36 249.706 107 200 107ZM200 111.511V107C150.294 107 110 123.36 110 143.541C110 163.723 150.294 180.083 200 180.083V176.023C244.723 176.023 280.977 161.581 280.977 143.767C280.977 125.953 244.723 111.511 200 111.511ZM200 122.001V111.511C155.277 111.511 119.023 125.953 119.023 143.767C119.023 161.581 155.277 176.023 200 176.023V165.443C229.317 165.334 253 155.651 253 143.722C253 131.793 229.317 122.11 200 122.001ZM200 124.683V122.001C199.834 122 199.667 122 199.5 122C169.953 122 146 131.725 146 143.722C146 155.718 169.953 165.444 199.5 165.444C199.667 165.444 199.834 165.443 200 165.443V163.029C226.355 162.922 247.637 154.379 247.637 143.856C247.637 133.333 226.355 124.79 200 124.683ZM200 133V124.683C199.834 124.682 199.667 124.682 199.5 124.682C172.915 124.682 151.363 133.266 151.363 143.856C151.363 154.445 172.915 163.03 199.5 163.03C199.667 163.03 199.834 163.03 200 163.029V154.113C214.359 154.113 226 149.387 226 143.556C226 137.726 214.359 133 200 133ZM200 134.303V133C185.641 133 174 137.726 174 143.556C174 149.387 185.641 154.113 200 154.113V152.94C212.92 152.94 223.393 148.768 223.393 143.622C223.393 138.475 212.92 134.303 200 134.303ZM200 134.303C187.08 134.303 176.607 138.475 176.607 143.622C176.607 148.768 187.08 152.94 200 152.94V134.303ZM238.757 294C237.874 293.99 236.987 293.99 236.095 294H238.757Z" fill="#113F67"/>
</svg>
